<svg width="24" height="24" viewBox="0 0 24 24" fill="none" xmlns="http://www.w3.org/2000/svg">
<mask id="mask0_387_857" style="mask-type:alpha" maskUnits="userSpaceOnUse" x="0" y="0" width="24" height="24">
<rect width="24" height="24" fill="#D9D9D9"/>
</mask>
<g mask="url(#mask0_387_857)">
<path d="M4 9.00005C3.71667 9.00005 3.47917 8.90422 3.2875 8.71255C3.09583 8.52088 3 8.28338 3 8.00005C3 7.71672 3.09583 7.47922 3.2875 7.28755C3.47917 7.09588 3.71667 7.00005 4 7.00005H7C7.55 7.00005 8.02083 7.19588 8.4125 7.58755C8.80417 7.97922 9 8.45005 9 9.00005H4ZM6 18C6.83333 18 7.54167 17.7084 8.125 17.125C8.70833 16.5417 9 15.8334 9 15C9 14.1667 8.70833 13.4584 8.125 12.875C7.54167 12.2917 6.83333 12 6 12C5.16667 12 4.45833 12.2917 3.875 12.875C3.29167 13.4584 3 14.1667 3 15C3 15.8334 3.29167 16.5417 3.875 17.125C4.45833 17.7084 5.16667 18 6 18ZM19.5 18C19.9167 18 20.2708 17.8542 20.5625 17.5625C20.8542 17.2709 21 16.9167 21 16.5C21 16.0834 20.8542 15.7292 20.5625 15.4375C20.2708 15.1459 19.9167 15 19.5 15C19.0833 15 18.7292 15.1459 18.4375 15.4375C18.1458 15.7292 18 16.0834 18 16.5C18 16.9167 18.1458 17.2709 18.4375 17.5625C18.7292 17.8542 19.0833 18 19.5 18ZM6 16.5C5.58333 16.5 5.22917 16.3542 4.9375 16.0625C4.64583 15.7709 4.5 15.4167 4.5 15C4.5 14.5834 4.64583 14.2292 4.9375 13.9375C5.22917 13.6459 5.58333 13.5 6 13.5C6.41667 13.5 6.77083 13.6459 7.0625 13.9375C7.35417 14.2292 7.5 14.5834 7.5 15C7.5 15.4167 7.35417 15.7709 7.0625 16.0625C6.77083 16.3542 6.41667 16.5 6 16.5ZM20 13.025C20.4333 13.1084 20.7917 13.2209 21.075 13.3625C21.3583 13.5042 21.6667 13.7334 22 14.05V8.00005C22 7.45005 21.8042 6.97922 21.4125 6.58755C21.0208 6.19588 20.55 6.00005 20 6.00005H13.7L12.65 4.90005L14.05 3.50005L13.35 2.80005L9.8 6.35005L10.55 7.05005L11.95 5.65005L13 6.70005V9.00005C13 9.55005 12.8042 10.0209 12.4125 10.4125C12.0208 10.8042 11.55 11 11 11H8.975C9.35833 11.2834 9.66667 11.575 9.9 11.875C10.1333 12.175 10.3667 12.55 10.6 13H11C12.1 13 13.0417 12.6084 13.825 11.825C14.6083 11.0417 15 10.1 15 9.00005V8.00005H20V13.025ZM16.025 16C16.125 15.55 16.2458 15.1875 16.3875 14.9125C16.5292 14.6375 16.75 14.3334 17.05 14H10.9C10.9667 14.3834 11 14.7167 11 15C11 15.2834 10.9667 15.6167 10.9 16H16.025ZM19.5 20C18.5333 20 17.7083 19.6584 17.025 18.975C16.3417 18.2917 16 17.4667 16 16.5C16 15.5334 16.3417 14.7084 17.025 14.025C17.7083 13.3417 18.5333 13 19.5 13C20.4667 13 21.2917 13.3417 21.975 14.025C22.6583 14.7084 23 15.5334 23 16.5C23 17.4667 22.6583 18.2917 21.975 18.975C21.2917 19.6584 20.4667 20 19.5 20ZM6 20C4.61667 20 3.4375 19.5125 2.4625 18.5375C1.4875 17.5625 1 16.3834 1 15C1 13.6167 1.4875 12.4375 2.4625 11.4625C3.4375 10.4875 4.61667 10 6 10C7.38333 10 8.5625 10.4875 9.5375 11.4625C10.5125 12.4375 11 13.6167 11 15C11 16.3834 10.5125 17.5625 9.5375 18.5375C8.5625 19.5125 7.38333 20 6 20Z" fill="#1C1B1F"/>
</g>
</svg>
