<svg width="24" height="24" viewBox="0 0 24 24" fill="none" xmlns="http://www.w3.org/2000/svg">
<mask id="mask0_519_794" style="mask-type:alpha" maskUnits="userSpaceOnUse" x="0" y="0" width="24" height="24">
<rect width="24" height="24" fill="#D9D9D9"/>
</mask>
<g mask="url(#mask0_519_794)">
<path d="M8.75 23C8.25 23 7.8125 22.8375 7.4375 22.5125C7.0625 22.1875 6.84167 21.775 6.775 21.275L5 8H19L17.225 21.275C17.1583 21.775 16.9375 22.1875 16.5625 22.5125C16.1875 22.8375 15.75 23 15.25 23H8.75ZM8.75 21H15.25L16.7 10H7.275L8.75 21ZM12 16C12.8333 16 13.5417 15.7083 14.125 15.125C14.7083 14.5417 15 13.8333 15 13V11H13V13C13 13.2833 12.9042 13.5208 12.7125 13.7125C12.5208 13.9042 12.2833 14 12 14C11.7167 14 11.4792 13.9042 11.2875 13.7125C11.0958 13.5208 11 13.2833 11 13V11H9V13C9 13.8333 9.29167 14.5417 9.875 15.125C10.4583 15.7083 11.1667 16 12 16ZM15 7C14.5833 7 14.2292 6.85417 13.9375 6.5625C13.6458 6.27083 13.5 5.91667 13.5 5.5C13.5 5.08333 13.6458 4.72917 13.9375 4.4375C14.2292 4.14583 14.5833 4 15 4C15.4167 4 15.7708 4.14583 16.0625 4.4375C16.3542 4.72917 16.5 5.08333 16.5 5.5C16.5 5.91667 16.3542 6.27083 16.0625 6.5625C15.7708 6.85417 15.4167 7 15 7ZM10 6C9.3 6 8.70833 5.75833 8.225 5.275C7.74167 4.79167 7.5 4.2 7.5 3.5C7.5 2.8 7.74167 2.20833 8.225 1.725C8.70833 1.24167 9.3 1 10 1C10.7 1 11.2917 1.24167 11.775 1.725C12.2583 2.20833 12.5 2.8 12.5 3.5C12.5 4.2 12.2583 4.79167 11.775 5.275C11.2917 5.75833 10.7 6 10 6Z" fill="#1C1B1F"/>
</g>
</svg>
