<svg width="24" height="24" viewBox="0 0 24 24" fill="none" xmlns="http://www.w3.org/2000/svg">
<mask id="mask0_387_879" style="mask-type:alpha" maskUnits="userSpaceOnUse" x="0" y="0" width="24" height="24">
<rect width="24" height="24" fill="#D9D9D9"/>
</mask>
<g mask="url(#mask0_387_879)">
<path d="M4.5 11C4.06667 11 3.70833 10.8583 3.425 10.575C3.14167 10.2917 3 9.93333 3 9.5C3 9.06667 3.14167 8.70833 3.425 8.425C3.70833 8.14167 4.06667 8 4.5 8C4.93333 8 5.29167 8.14167 5.575 8.425C5.85833 8.70833 6 9.06667 6 9.5C6 9.93333 5.85833 10.2917 5.575 10.575C5.29167 10.8583 4.93333 11 4.5 11ZM3 22V17H2V13C2 12.7167 2.09583 12.4792 2.2875 12.2875C2.47917 12.0958 2.71667 12 3 12H6C6.28333 12 6.52083 12.0958 6.7125 12.2875C6.90417 12.4792 7 12.7167 7 13V17H6V20H14V15H12.25C11.0667 15 10.0625 14.5875 9.2375 13.7625C8.4125 12.9375 8 11.9333 8 10.75C8 9.86667 8.2375 9.07917 8.7125 8.3875C9.1875 7.69583 9.8 7.18333 10.55 6.85C10.7333 5.76667 11.2375 4.85417 12.0625 4.1125C12.8875 3.37083 13.8667 3 15 3C16.1333 3 17.1125 3.37083 17.9375 4.1125C18.7625 4.85417 19.2667 5.76667 19.45 6.85C20.2 7.18333 20.8125 7.69583 21.2875 8.3875C21.7625 9.07917 22 9.86667 22 10.75C22 11.9333 21.5875 12.9375 20.7625 13.7625C19.9375 14.5875 18.9333 15 17.75 15H16V20H21V22H3ZM12.25 13H17.75C18.3833 13 18.9167 12.7833 19.35 12.35C19.7833 11.9167 20 11.3833 20 10.75C20 10.3 19.8792 9.89167 19.6375 9.525C19.3958 9.15833 19.0667 8.88333 18.65 8.7L17.6 8.25L17.45 7.15C17.35 6.53333 17.0708 6.02083 16.6125 5.6125C16.1542 5.20417 15.6167 5 15 5C14.3833 5 13.8458 5.20417 13.3875 5.6125C12.9292 6.02083 12.65 6.53333 12.55 7.15L12.4 8.25L11.35 8.7C10.9333 8.88333 10.6042 9.15833 10.3625 9.525C10.1208 9.89167 10 10.3 10 10.75C10 11.3833 10.2167 11.9167 10.65 12.35C11.0833 12.7833 11.6167 13 12.25 13Z" fill="#1C1B1F"/>
</g>
</svg>
