<svg width="24" height="24" viewBox="0 0 24 24" fill="none" xmlns="http://www.w3.org/2000/svg">
<path d="M24 12C24 18.6274 18.6274 24 12 24C5.37258 24 0 18.6274 0 12C0 5.37258 5.37258 0 12 0C18.6274 0 24 5.37258 24 12Z" fill="#1B4CC8"/>
<path d="M11.4948 4.1036C11.8061 3.55181 12.6007 3.55181 12.912 4.1036L19.6604 16.0667C20.0694 16.7917 19.2546 17.5903 18.5379 17.1669L12.6173 13.6683C12.362 13.5174 12.0448 13.5174 11.7895 13.6683L5.86883 17.1669C5.15219 17.5903 4.33738 16.7917 4.74636 16.0667L11.4948 4.1036Z" fill="#C2D3FF"/>
</svg>
