<svg width="24" height="24" viewBox="0 0 24 24" fill="none" xmlns="http://www.w3.org/2000/svg">
<mask id="mask0_432_2421" style="mask-type:alpha" maskUnits="userSpaceOnUse" x="0" y="0" width="24" height="24">
<rect width="24" height="24" fill="#D9D9D9"/>
</mask>
<g mask="url(#mask0_432_2421)">
<path d="M11.825 22C11.425 22 11.0417 21.925 10.675 21.775C10.3083 21.625 9.98333 21.4083 9.7 21.125L4.6 16L5.35 15.225C5.61667 14.9583 5.92917 14.7792 6.2875 14.6875C6.64583 14.5958 7 14.6 7.35 14.7L9 15.175V7C9 6.71667 9.09583 6.47917 9.2875 6.2875C9.47917 6.09583 9.71667 6 10 6C10.2833 6 10.5208 6.09583 10.7125 6.2875C10.9042 6.47917 11 6.71667 11 7V17.825L8.575 17.15L11.125 19.7C11.2083 19.7833 11.3125 19.8542 11.4375 19.9125C11.5625 19.9708 11.6917 20 11.825 20H16C16.55 20 17.0208 19.8042 17.4125 19.4125C17.8042 19.0208 18 18.55 18 18V14C18 13.7167 18.0958 13.4792 18.2875 13.2875C18.4792 13.0958 18.7167 13 19 13C19.2833 13 19.5208 13.0958 19.7125 13.2875C19.9042 13.4792 20 13.7167 20 14V18C20 19.1 19.6083 20.0417 18.825 20.825C18.0417 21.6083 17.1 22 16 22H11.825ZM12 15V11C12 10.7167 12.0958 10.4792 12.2875 10.2875C12.4792 10.0958 12.7167 10 13 10C13.2833 10 13.5208 10.0958 13.7125 10.2875C13.9042 10.4792 14 10.7167 14 11V15H12ZM15 15V12C15 11.7167 15.0958 11.4792 15.2875 11.2875C15.4792 11.0958 15.7167 11 16 11C16.2833 11 16.5208 11.0958 16.7125 11.2875C16.9042 11.4792 17 11.7167 17 12V15H15ZM2 7V2H3.5V4.025C4.7 3.04167 6.025 2.29167 7.475 1.775C8.925 1.25833 10.4333 1 12 1C14.4333 1 16.5833 1.55833 18.45 2.675C20.3167 3.79167 21.5 5.23333 22 7H20.425C19.7917 5.6 18.7208 4.5 17.2125 3.7C15.7042 2.9 13.9667 2.5 12 2.5C10.5333 2.5 9.125 2.75833 7.775 3.275C6.425 3.79167 5.2 4.53333 4.1 5.5H7V7H2Z" fill="#1C1B1F"/>
</g>
</svg>
