<svg width="24" height="24" viewBox="0 0 24 24" fill="none" xmlns="http://www.w3.org/2000/svg">
<g clip-path="url(#clip0_102_11)">
<path d="M12 23.64C18.4286 23.64 23.64 18.4286 23.64 12C23.64 5.57139 18.4286 0.359985 12 0.359985C5.57141 0.359985 0.360001 5.57139 0.360001 12C0.360001 18.4286 5.57141 23.64 12 23.64Z" fill="#49BF61"/>
<path d="M10.05 22.44C9.93 22.35 9.84 22.26 9.9 22.08C9.96 21.93 10.11 21.9 10.26 21.9C10.41 21.9 10.56 21.9 10.74 21.9C10.71 18 10.35 14.19 8.97 10.53C8.94 10.53 8.94 10.53 8.91 10.53C8.82 10.95 8.7 11.37 8.61 11.79C8.55 12.18 8.49 12.57 8.46 12.93C8.43 13.29 8.25 13.38 7.95 13.2C7.47 12.93 7.23 12.45 7.14 11.94C7.02 11.25 7.11 10.59 7.29 9.93C7.32 9.87 7.32 9.81001 7.35 9.72001C7.23 9.78001 7.11 9.81 7.02 9.84C6.03 10.26 5.1 10.83 4.29 11.55C4.02 11.79 3.81 11.73 3.72 11.4C3.6 10.98 3.69 10.56 3.87 10.2C4.2 9.57 4.71 9.12001 5.31 8.76C5.61 8.58001 5.91 8.46001 6.24 8.31001C6.42 8.22001 6.57 8.28 6.63 8.43001C6.69 8.58001 6.6 8.73 6.42 8.79C5.73 9.06 5.1 9.45001 4.62 10.02C4.41 10.26 4.26 10.56 4.2 10.92C5.52 9.87001 6.93 9.12 8.61 8.82C8.37 8.67 8.19 8.52 8.01 8.4C6.84 7.65 5.52 7.26 4.14 7.08C4.11 7.08 4.05 7.08 4.02 7.08C3.66 7.08 3.6 6.81 3.78 6.54C4.11 6.06 4.56 5.85 5.13 5.79C6.3 5.67 7.35 6.00001 8.28 6.66001C8.31 6.69001 8.34 6.69 8.37 6.72H8.4C8.52 6.09 8.79 5.55 9.24 5.1C9.69 4.65 10.2 4.38 10.83 4.38C10.98 4.38 11.13 4.41 11.28 4.47C11.58 4.56 11.61 4.77 11.4 4.98C10.83 5.55 10.35 6.18 9.99 6.93001C9.84 7.23001 9.75 7.56 9.63 7.92C9.69 7.89 9.72 7.89001 9.72 7.86001C10.47 7.17001 11.37 6.93001 12.36 6.96001C12.93 6.99001 13.5 7.08 14.01 7.32C14.55 7.56 15 7.92 15.15 8.52C15.15 8.55 15.18 8.58001 15.18 8.61001C15.24 8.97001 15.09 9.12001 14.73 9C13.77 8.76 12.81 8.64 11.85 8.67C11.82 8.67 11.76 8.67 11.7 8.70001C11.82 8.82 11.94 8.91001 12.03 9C12.48 9.42 12.87 9.9 12.99 10.53C13.05 10.83 13.05 11.1 12.93 11.37C12.81 11.64 12.63 11.67 12.42 11.49C11.85 10.92 11.22 10.44 10.53 9.99C10.8 10.71 11.04 11.4 11.28 12.09C12.51 11.88 13.65 11.97 14.67 12.87C14.64 12.75 14.64 12.66 14.61 12.57C14.4 11.82 14.04 11.13 13.56 10.53C13.32 10.23 13.41 10.05 13.77 9.99C14.4 9.9 14.91 10.17 15.33 10.62C15.75 11.07 15.96 11.64 16.02 12.21C16.38 12.09 16.74 11.91 17.1 11.82C17.79 11.64 18.45 11.67 19.11 11.97C19.44 12.12 19.71 12.39 19.86 12.75C19.95 13.02 19.86 13.17 19.56 13.17C18.81 13.14 18.06 13.23 17.31 13.41C17.25 13.44 17.19 13.44 17.07 13.47C17.16 13.5 17.22 13.53 17.28 13.53C18.12 13.83 18.78 14.34 19.2 15.15C19.44 15.6 19.5 16.05 19.29 16.53C19.14 16.86 18.96 16.89 18.72 16.62C18.24 16.05 17.67 15.57 17.04 15.15C16.98 15.12 16.92 15.06 16.83 15.03C16.83 15.03 16.8 15.03 16.77 15C16.8 15.24 16.83 15.48 16.83 15.72C16.86 16.32 16.77 16.92 16.41 17.46C16.26 17.7 16.02 17.88 15.75 17.97C15.48 18.06 15.33 17.94 15.33 17.64C15.33 17.07 15.3 16.47 15.27 15.9C14.94 16.26 13.74 20.37 13.53 21.78C13.68 21.78 13.8 21.78 13.92 21.78C14.07 21.78 14.22 21.78 14.28 21.93C14.34 22.08 14.25 22.2 14.16 22.29C12.81 22.44 11.43 22.44 10.05 22.44ZM9 9.36001C9.12 9.60001 9.24 9.87001 9.33 10.11C10.17 12.18 10.62 14.34 10.92 16.53C11.13 18.27 11.25 20.01 11.25 21.75C11.25 21.81 11.25 21.84 11.25 21.9C11.64 21.9 12 21.9 12.39 21.9C12.33 21.33 12.3 20.76 12.24 20.19C12.03 18.21 11.73 16.23 11.25 14.31C10.92 12.9 10.53 11.49 9.9 10.14C9.75 9.84 9.6 9.54 9.45 9.27C9.3 9.3 9.15 9.33001 9 9.36001ZM14.91 14.46C14.7 14.82 14.46 15.15 14.28 15.51C13.98 16.08 13.74 16.65 13.47 17.25C13.41 17.4 13.32 17.49 13.14 17.46C12.96 17.43 12.87 17.25 12.96 17.07C13.23 16.47 13.5 15.87 13.8 15.3C13.83 15.24 13.86 15.21 13.89 15.15C13.86 15.12 13.86 15.12 13.83 15.09C13.35 15.42 12.84 15.72 12.36 16.05C12.24 16.14 12.24 16.23 12.24 16.35C12.54 17.91 12.75 19.5 12.87 21.12C12.9 21.39 12.9 21.69 12.93 21.96C12.96 21.96 12.96 21.96 12.99 21.96C13.32 20.73 13.62 19.47 13.95 18.24C14.31 16.98 14.76 15.78 15.33 14.61C15.24 14.58 15.18 14.58 15.12 14.55C15.03 14.52 14.97 14.49 14.91 14.46ZM4.47 6.6C6.06 6.87 7.53 7.38 8.82 8.37C8.46 6.81 5.52 5.64 4.47 6.6ZM9.87 8.55C11.43 8.1 12.99 8.16 14.55 8.49C14.07 7.5 11.07 6.93 9.87 8.55ZM7.95 12.54C8.07 11.64 8.25 10.8 8.55 9.99C8.61 9.84 8.61 9.72001 8.52 9.57C8.49 9.51 8.4 9.42 8.37 9.42C8.22 9.45001 8.04 9.39 7.98 9.57C7.68 10.26 7.53 10.95 7.65 11.7C7.65 12.03 7.74 12.3 7.95 12.54ZM9.93 9.06001C10.05 9.15001 10.11 9.24001 10.17 9.3C10.95 9.72001 11.67 10.23 12.36 10.8C12.39 10.83 12.42 10.86 12.48 10.89C12.48 10.59 12.36 10.38 12.24 10.17C11.91 9.63001 11.43 9.24001 10.89 8.91001C10.86 8.88001 10.8 8.88 10.77 8.88C10.53 8.94001 10.26 9.00001 9.93 9.06001ZM15.6 13.62C16.68 12.99 17.85 12.75 19.08 12.72C18.24 11.88 15.96 12.48 15.6 13.62ZM14.52 13.62C14.13 12.84 12.24 12.27 11.4 12.72C11.4 12.78 11.43 12.84 11.43 12.9C11.46 13.08 11.55 13.11 11.7 13.14C12.21 13.17 12.72 13.2 13.2 13.29C13.68 13.38 14.1 13.53 14.52 13.62ZM15.93 14.16C17.1 14.55 18.03 15.21 18.84 16.08C18.9 14.91 17.1 13.74 15.93 14.16ZM9.18 7.68001C9.45 6.66 9.99 5.76 10.68 4.95C10.47 5.01 10.26 5.04 10.08 5.13C9.45 5.49 9.09 6.06 8.94 6.75C8.88 7.11 8.88 7.41001 9.18 7.68001ZM15.93 17.34C15.96 17.34 15.96 17.37 15.99 17.37C16.08 17.19 16.17 17.04 16.23 16.86C16.41 16.26 16.35 15.66 16.23 15.03C16.2 14.82 16.08 14.73 15.84 14.7C15.78 14.85 15.66 15.03 15.69 15.18C15.81 15.9 15.9 16.62 15.93 17.34ZM12.21 15.45C12.9 14.97 13.56 14.61 14.31 14.34C14.37 14.31 14.4 14.28 14.46 14.22C14.22 14.13 14.01 14.07 13.8 14.01C13.77 14.01 13.71 14.01 13.68 14.01C13.29 14.16 12.9 14.4 12.6 14.73C12.42 14.94 12.27 15.15 12.21 15.45ZM15.24 13.11C15.42 12.96 15.48 12.78 15.48 12.57C15.48 11.88 15.24 11.28 14.7 10.83C14.58 10.74 14.43 10.68 14.31 10.62C14.31 10.65 14.28 10.65 14.28 10.68C14.76 11.4 15.12 12.21 15.24 13.11ZM12.9 13.74C12.48 13.71 12.09 13.68 11.67 13.65C11.76 14.04 11.85 14.37 11.91 14.67C12.24 14.37 12.57 14.07 12.9 13.74Z" fill="white"/>
<path d="M7.29 21.87C7.26 21.87 7.26 21.87 7.23 21.84C3.42 20.01 1.05 16.23 1.05 12C1.05 5.97005 5.97 1.05005 12 1.05005C18.03 1.05005 22.95 5.97005 22.95 12C22.95 15.81 21.03 19.29 17.76 21.3C17.7 21.33 17.61 21.33 17.55 21.24C17.52 21.18 17.52 21.09 17.61 21.03C20.76 19.08 22.65 15.72 22.65 12C22.65 6.12005 17.88 1.35005 12 1.35005C6.12 1.35005 1.35 6.12005 1.35 12C1.35 16.11 3.66 19.77 7.35 21.57C7.41 21.6 7.47 21.69 7.41 21.78C7.38 21.84 7.32 21.87 7.29 21.87Z" fill="white"/>
</g>
<defs>
<clipPath id="clip0_102_11">
<rect width="24" height="24" fill="white"/>
</clipPath>
</defs>
</svg>
