<svg width="24" height="24" viewBox="0 0 24 24" fill="none" xmlns="http://www.w3.org/2000/svg">
<g clip-path="url(#clip0_102_11)">
<path d="M12 23.6401C18.4286 23.6401 23.64 18.4287 23.64 12.0001C23.64 5.57151 18.4286 0.360107 12 0.360107C5.57141 0.360107 0.360001 5.57151 0.360001 12.0001C0.360001 18.4287 5.57141 23.6401 12 23.6401Z" fill="#49BF61"/>
<path d="M10.05 22.4399C9.93 22.3499 9.84 22.2599 9.9 22.0799C9.96 21.9299 10.11 21.8999 10.26 21.8999C10.41 21.8999 10.56 21.8999 10.74 21.8999C10.71 17.9999 10.35 14.1899 8.97 10.5299C8.94 10.5299 8.94 10.5299 8.91 10.5299C8.82 10.9499 8.7 11.3699 8.61 11.7899C8.55 12.1799 8.49 12.5699 8.46 12.9299C8.43 13.2899 8.25 13.3799 7.95 13.1999C7.47 12.9299 7.23 12.4499 7.14 11.9399C7.02 11.2499 7.11 10.5899 7.29 9.92988C7.32 9.86988 7.32 9.80988 7.35 9.71988C7.23 9.77988 7.11 9.80988 7.02 9.83988C6.03 10.2599 5.1 10.8299 4.29 11.5499C4.02 11.7899 3.81 11.7299 3.72 11.3999C3.6 10.9799 3.69 10.5599 3.87 10.1999C4.2 9.56988 4.71 9.11988 5.31 8.75988C5.61 8.57988 5.91 8.45988 6.24 8.30988C6.42 8.21988 6.57 8.27988 6.63 8.42988C6.69 8.57988 6.6 8.72988 6.42 8.78988C5.73 9.05988 5.1 9.44988 4.62 10.0199C4.41 10.2599 4.26 10.5599 4.2 10.9199C5.52 9.86988 6.93 9.11988 8.61 8.81988C8.37 8.66988 8.19 8.51988 8.01 8.39988C6.84 7.64988 5.52 7.25988 4.14 7.07988C4.11 7.07988 4.05 7.07988 4.02 7.07988C3.66 7.07988 3.6 6.80988 3.78 6.53988C4.11 6.05988 4.56 5.84988 5.13 5.78988C6.3 5.66988 7.35 5.99988 8.28 6.65988C8.31 6.68988 8.34 6.68988 8.37 6.71988H8.4C8.52 6.08988 8.79 5.54988 9.24 5.09988C9.69 4.64988 10.2 4.37988 10.83 4.37988C10.98 4.37988 11.13 4.40988 11.28 4.46988C11.58 4.55988 11.61 4.76988 11.4 4.97988C10.83 5.54988 10.35 6.17988 9.99 6.92988C9.84 7.22988 9.75 7.55988 9.63 7.91988C9.69 7.88988 9.72 7.88988 9.72 7.85988C10.47 7.16988 11.37 6.92988 12.36 6.95988C12.93 6.98988 13.5 7.07988 14.01 7.31988C14.55 7.55988 15 7.91988 15.15 8.51988C15.15 8.54988 15.18 8.57988 15.18 8.60988C15.24 8.96988 15.09 9.11988 14.73 8.99988C13.77 8.75988 12.81 8.63988 11.85 8.66988C11.82 8.66988 11.76 8.66988 11.7 8.69988C11.82 8.81988 11.94 8.90988 12.03 8.99988C12.48 9.41988 12.87 9.89988 12.99 10.5299C13.05 10.8299 13.05 11.0999 12.93 11.3699C12.81 11.6399 12.63 11.6699 12.42 11.4899C11.85 10.9199 11.22 10.4399 10.53 9.98988C10.8 10.7099 11.04 11.3999 11.28 12.0899C12.51 11.8799 13.65 11.9699 14.67 12.8699C14.64 12.7499 14.64 12.6599 14.61 12.5699C14.4 11.8199 14.04 11.1299 13.56 10.5299C13.32 10.2299 13.41 10.0499 13.77 9.98988C14.4 9.89988 14.91 10.1699 15.33 10.6199C15.75 11.0699 15.96 11.6399 16.02 12.2099C16.38 12.0899 16.74 11.9099 17.1 11.8199C17.79 11.6399 18.45 11.6699 19.11 11.9699C19.44 12.1199 19.71 12.3899 19.86 12.7499C19.95 13.0199 19.86 13.1699 19.56 13.1699C18.81 13.1399 18.06 13.2299 17.31 13.4099C17.25 13.4399 17.19 13.4399 17.07 13.4699C17.16 13.4999 17.22 13.5299 17.28 13.5299C18.12 13.8299 18.78 14.3399 19.2 15.1499C19.44 15.5999 19.5 16.0499 19.29 16.5299C19.14 16.8599 18.96 16.8899 18.72 16.6199C18.24 16.0499 17.67 15.5699 17.04 15.1499C16.98 15.1199 16.92 15.0599 16.83 15.0299C16.83 15.0299 16.8 15.0299 16.77 14.9999C16.8 15.2399 16.83 15.4799 16.83 15.7199C16.86 16.3199 16.77 16.9199 16.41 17.4599C16.26 17.6999 16.02 17.8799 15.75 17.9699C15.48 18.0599 15.33 17.9399 15.33 17.6399C15.33 17.0699 15.3 16.4699 15.27 15.8999C14.94 16.2599 13.74 20.3699 13.53 21.7799C13.68 21.7799 13.8 21.7799 13.92 21.7799C14.07 21.7799 14.22 21.7799 14.28 21.9299C14.34 22.0799 14.25 22.1999 14.16 22.2899C12.81 22.4399 11.43 22.4399 10.05 22.4399ZM9 9.35988C9.12 9.59988 9.24 9.86988 9.33 10.1099C10.17 12.1799 10.62 14.3399 10.92 16.5299C11.13 18.2699 11.25 20.0099 11.25 21.7499C11.25 21.8099 11.25 21.8399 11.25 21.8999C11.64 21.8999 12 21.8999 12.39 21.8999C12.33 21.3299 12.3 20.7599 12.24 20.1899C12.03 18.2099 11.73 16.2299 11.25 14.3099C10.92 12.8999 10.53 11.4899 9.9 10.1399C9.75 9.83988 9.6 9.53988 9.45 9.26988C9.3 9.29988 9.15 9.32988 9 9.35988ZM14.91 14.4599C14.7 14.8199 14.46 15.1499 14.28 15.5099C13.98 16.0799 13.74 16.6499 13.47 17.2499C13.41 17.3999 13.32 17.4899 13.14 17.4599C12.96 17.4299 12.87 17.2499 12.96 17.0699C13.23 16.4699 13.5 15.8699 13.8 15.2999C13.83 15.2399 13.86 15.2099 13.89 15.1499C13.86 15.1199 13.86 15.1199 13.83 15.0899C13.35 15.4199 12.84 15.7199 12.36 16.0499C12.24 16.1399 12.24 16.2299 12.24 16.3499C12.54 17.9099 12.75 19.4999 12.87 21.1199C12.9 21.3899 12.9 21.6899 12.93 21.9599C12.96 21.9599 12.96 21.9599 12.99 21.9599C13.32 20.7299 13.62 19.4699 13.95 18.2399C14.31 16.9799 14.76 15.7799 15.33 14.6099C15.24 14.5799 15.18 14.5799 15.12 14.5499C15.03 14.5199 14.97 14.4899 14.91 14.4599ZM4.47 6.59988C6.06 6.86988 7.53 7.37988 8.82 8.36988C8.46 6.80988 5.52 5.63988 4.47 6.59988ZM9.87 8.54988C11.43 8.09988 12.99 8.15988 14.55 8.48988C14.07 7.49988 11.07 6.92988 9.87 8.54988ZM7.95 12.5399C8.07 11.6399 8.25 10.7999 8.55 9.98988C8.61 9.83988 8.61 9.71988 8.52 9.56988C8.49 9.50988 8.4 9.41988 8.37 9.41988C8.22 9.44988 8.04 9.38988 7.98 9.56988C7.68 10.2599 7.53 10.9499 7.65 11.6999C7.65 12.0299 7.74 12.2999 7.95 12.5399ZM9.93 9.05988C10.05 9.14988 10.11 9.23988 10.17 9.29988C10.95 9.71988 11.67 10.2299 12.36 10.7999C12.39 10.8299 12.42 10.8599 12.48 10.8899C12.48 10.5899 12.36 10.3799 12.24 10.1699C11.91 9.62988 11.43 9.23988 10.89 8.90988C10.86 8.87988 10.8 8.87988 10.77 8.87988C10.53 8.93988 10.26 8.99988 9.93 9.05988ZM15.6 13.6199C16.68 12.9899 17.85 12.7499 19.08 12.7199C18.24 11.8799 15.96 12.4799 15.6 13.6199ZM14.52 13.6199C14.13 12.8399 12.24 12.2699 11.4 12.7199C11.4 12.7799 11.43 12.8399 11.43 12.8999C11.46 13.0799 11.55 13.1099 11.7 13.1399C12.21 13.1699 12.72 13.1999 13.2 13.2899C13.68 13.3799 14.1 13.5299 14.52 13.6199ZM15.93 14.1599C17.1 14.5499 18.03 15.2099 18.84 16.0799C18.9 14.9099 17.1 13.7399 15.93 14.1599ZM9.18 7.67988C9.45 6.65988 9.99 5.75988 10.68 4.94988C10.47 5.00988 10.26 5.03988 10.08 5.12988C9.45 5.48988 9.09 6.05988 8.94 6.74988C8.88 7.10988 8.88 7.40988 9.18 7.67988ZM15.93 17.3399C15.96 17.3399 15.96 17.3699 15.99 17.3699C16.08 17.1899 16.17 17.0399 16.23 16.8599C16.41 16.2599 16.35 15.6599 16.23 15.0299C16.2 14.8199 16.08 14.7299 15.84 14.6999C15.78 14.8499 15.66 15.0299 15.69 15.1799C15.81 15.8999 15.9 16.6199 15.93 17.3399ZM12.21 15.4499C12.9 14.9699 13.56 14.6099 14.31 14.3399C14.37 14.3099 14.4 14.2799 14.46 14.2199C14.22 14.1299 14.01 14.0699 13.8 14.0099C13.77 14.0099 13.71 14.0099 13.68 14.0099C13.29 14.1599 12.9 14.3999 12.6 14.7299C12.42 14.9399 12.27 15.1499 12.21 15.4499ZM15.24 13.1099C15.42 12.9599 15.48 12.7799 15.48 12.5699C15.48 11.8799 15.24 11.2799 14.7 10.8299C14.58 10.7399 14.43 10.6799 14.31 10.6199C14.31 10.6499 14.28 10.6499 14.28 10.6799C14.76 11.3999 15.12 12.2099 15.24 13.1099ZM12.9 13.7399C12.48 13.7099 12.09 13.6799 11.67 13.6499C11.76 14.0399 11.85 14.3699 11.91 14.6699C12.24 14.3699 12.57 14.0699 12.9 13.7399Z" fill="white"/>
<path d="M7.29 21.87C7.26 21.87 7.26 21.87 7.23 21.84C3.42 20.01 1.05 16.23 1.05 12C1.05 5.97005 5.97 1.05005 12 1.05005C18.03 1.05005 22.95 5.97005 22.95 12C22.95 15.81 21.03 19.29 17.76 21.3C17.7 21.33 17.61 21.33 17.55 21.24C17.52 21.18 17.52 21.09 17.61 21.03C20.76 19.08 22.65 15.72 22.65 12C22.65 6.12005 17.88 1.35005 12 1.35005C6.12 1.35005 1.35 6.12005 1.35 12C1.35 16.11 3.66 19.77 7.35 21.57C7.41 21.6 7.47 21.69 7.41 21.78C7.38 21.84 7.32 21.87 7.29 21.87Z" fill="white"/>
</g>
<defs>
<clipPath id="clip0_102_11">
<rect width="24" height="24" fill="white"/>
</clipPath>
</defs>
</svg>
